<?xml version="1.0" standalone="no"?>
<!DOCTYPE svg PUBLIC "-//W3C//DTD SVG 20010904//EN"
 "http://www.w3.org/TR/2001/REC-SVG-20010904/DTD/svg10.dtd">
<svg version="1.0" xmlns="http://www.w3.org/2000/svg"
 width="656.000000pt" height="656.000000pt" viewBox="0 0 656.000000 656.000000"
 preserveAspectRatio="xMidYMid meet">
<metadata>
Created by potrace 1.14, written by Peter Selinger 2001-2017
</metadata>
<g transform="translate(0.000000,656.000000) scale(0.100000,-0.100000)"
fill="#000000" stroke="none">
<path d="M1874 6501 c-5 -5 -34 -22 -64 -37 -30 -15 -57 -30 -60 -33 -3 -4
-21 -15 -40 -25 -53 -29 -198 -125 -255 -168 -27 -21 -54 -42 -60 -46 -85 -64
-146 -115 -208 -174 -21 -21 -41 -38 -43 -38 -10 0 -190 -190 -280 -295 -98
-114 -334 -439 -334 -459 0 -2 -17 -33 -38 -67 -100 -165 -209 -398 -287 -614
-26 -71 -49 -137 -51 -145 -2 -8 -20 -76 -39 -150 -36 -132 -69 -297 -80 -389
-3 -25 -8 -55 -10 -66 -20 -100 -27 -559 -11 -700 4 -38 9 -86 11 -105 2 -19
6 -48 9 -65 4 -16 9 -46 12 -65 3 -19 7 -42 10 -50 3 -8 8 -31 10 -50 3 -19
10 -53 15 -75 6 -22 13 -47 15 -55 50 -208 179 -587 253 -745 20 -44 44 -95
52 -113 7 -17 17 -32 21 -32 5 0 8 -7 8 -16 0 -9 8 -28 18 -42 10 -15 24 -40
32 -57 8 -16 18 -34 22 -40 5 -5 40 -59 79 -120 39 -60 76 -111 80 -113 5 -2
9 -8 9 -13 0 -5 6 -17 14 -26 8 -10 40 -49 71 -88 147 -183 360 -386 555 -529
58 -43 112 -83 120 -89 8 -7 26 -18 40 -24 30 -15 63 -36 70 -44 3 -3 12 -9
20 -13 8 -4 38 -20 65 -36 64 -38 270 -139 355 -175 36 -15 79 -33 95 -40 28
-12 73 -28 85 -30 3 0 30 -9 60 -20 30 -11 57 -20 60 -20 3 -1 12 -5 20 -8 16
-7 275 -74 318 -82 70 -13 210 -37 240 -41 17 -2 49 -6 70 -9 206 -27 667 -27
847 1 17 2 50 6 75 9 25 2 55 6 66 9 12 2 39 7 60 10 22 4 46 8 54 11 8 2 31
6 50 9 98 15 464 120 512 146 10 6 25 10 33 10 8 0 15 5 15 11 0 5 4 8 8 5 4
-2 21 2 37 9 17 8 77 35 135 61 162 73 276 136 440 243 76 49 247 174 260 190
3 3 28 24 55 46 74 58 302 289 370 375 33 41 62 77 66 80 10 9 114 154 150
210 124 190 192 321 314 604 114 265 111 279 -49 202 -41 -20 -79 -36 -85 -36
-6 0 -11 -4 -11 -9 0 -8 -80 -40 -115 -47 -5 -1 -30 -8 -55 -15 -25 -7 -47
-13 -50 -14 -21 -5 -69 -16 -85 -19 -11 -3 -40 -9 -65 -15 -25 -5 -58 -12 -75
-15 -16 -3 -41 -8 -55 -11 -14 -3 -45 -8 -70 -11 -25 -3 -56 -7 -70 -9 -41 -6
-111 -14 -174 -20 -33 -3 -61 -7 -64 -9 -2 -2 -17 0 -33 4 -16 5 -31 5 -33 1
-9 -13 -434 -4 -556 13 -19 2 -62 7 -95 11 -33 4 -76 11 -95 16 -19 5 -49 9
-66 9 -17 0 -34 3 -37 7 -4 3 -17 7 -29 9 -60 7 -322 76 -393 104 -16 6 -32
12 -35 12 -9 1 -34 9 -60 20 -14 5 -45 17 -70 25 -25 8 -73 28 -108 44 -35 16
-65 29 -68 29 -12 0 -254 124 -341 176 -97 57 -267 168 -289 188 -6 6 -22 18
-34 26 -104 69 -344 294 -465 436 -22 26 -45 52 -50 58 -9 9 -55 66 -105 129
-8 11 -21 25 -27 32 -7 8 -13 16 -13 19 0 3 -22 36 -49 73 -160 220 -327 555
-424 853 -26 81 -65 220 -72 258 -2 13 -6 31 -9 40 -5 18 -15 62 -21 97 -2 11
-6 34 -9 50 -3 17 -8 47 -11 69 -4 21 -8 47 -10 58 -45 232 -50 799 -11 1123
3 22 8 65 11 95 3 30 8 66 11 80 5 28 16 114 18 145 1 11 5 26 9 33 5 6 6 12
4 12 -3 0 -1 16 3 35 8 35 1 51 -16 36z"/>
</g>
</svg>
