<svg
  id="Group_7"
  data-name="Group 7"
  xmlns="http://www.w3.org/2000/svg"
  width="378.441"
  height="456.258"
  viewBox="0 0 378.441 456.258"
>
  <path
    id="Path_1"
    data-name="Path 1"
    d="M344.814,404.91l-.324,0L58.982,401.574A29.613,29.613,0,0,1,29.8,371.808C9.642,304.945.761,252.292,1,201.1c.254-53.43,10.81-107.78,33.22-171.032A29.605,29.605,0,0,1,63.778,1l.312,0L349.6,4.338a29.6,29.6,0,0,1,29.176,29.868h0L378.2,83.729l-.429,0-3.409,292A29.6,29.6,0,0,1,344.814,404.91ZM63.778,2.324A28.273,28.273,0,0,0,35.55,30.2v.11l-.037.1c-42.795,120.739-43.95,210-4.413,341.111l.029.1v.1A28.282,28.282,0,0,0,59,400.246L344.5,403.58l.31,0a28.272,28.272,0,0,0,28.216-27.867l3.147-269.49.014-1.327.365-30.814.424,0,.466-39.889A28.27,28.27,0,0,0,349.582,5.666L64.075,2.326Z"
    transform="translate(-0.336 -0.335)"
    fill="#f2f2f2"
  />
  <path
    id="Path_2"
    data-name="Path 2"
    d="M398.047,429.078l-.02,1.328H234.941v-1.328Z"
    transform="translate(-78.933 -144.157)"
    fill="#f2f2f2"
  />
  <path
    id="Path_3"
    data-name="Path 3"
    d="M398.373,386.578l-.013,1.328H234.941v-1.328Z"
    transform="translate(-78.933 -129.878)"
    fill="#f2f2f2"
  />
  <path
    id="Path_4"
    data-name="Path 4"
    d="M398.7,344.078l-.013,1.328H234.941v-1.328Z"
    transform="translate(-78.933 -115.6)"
    fill="#f2f2f2"
  />
  <path
    id="Path_5"
    data-name="Path 5"
    d="M395.841,405.63l-.013,1.328H229.461V267.578l1.328.013V351a54.411,54.411,0,0,0,5.452,23.819c.219.445.438.89.671,1.328a54.629,54.629,0,0,0,48.514,29.483Z"
    transform="translate(-77.092 -89.898)"
    fill="#f2f2f2"
  />
  <path
    id="Path_6"
    data-name="Path 6"
    d="M88.039,385.024a28.9,28.9,0,0,1-28.523-29.2C21.573,230.008,19.2,140.533,63.934,14.3A28.523,28.523,0,0,1,68.036.068L62.417,0a28.9,28.9,0,0,0-29.2,28.523C-11.518,154.756-9.142,244.229,28.8,370.048a28.9,28.9,0,0,0,28.523,29.2l285.508,3.338a28.767,28.767,0,0,0,25.1-14.288L88.039,385.024Z"
    transform="translate(0 0)"
    fill="#f2f2f2"
    style="isolation: isolate"
  />
  <path
    id="Path_7"
    data-name="Path 7"
    d="M185.927,351.192a4.75,4.75,0,0,1-4.768,5.441l-9.6,21.643-6.639-1.184,11.593-25.622a4.744,4.744,0,0,1,9.417-.277Z"
    transform="translate(-55.407 -116.63)"
    fill="#ffb6b6"
  />
  <path
    id="Path_8"
    data-name="Path 8"
    d="M117.195,425.087h0a7.7,7.7,0,0,0,10.282.706l22.72-17.822,11.257-35.005-8.184-3.786-15.376,30.667-19.553,13.57a7.7,7.7,0,0,0-1.145,11.671Z"
    transform="translate(-38.647 -124.033)"
    fill="#efce45"
  />
  <path
    id="Path_9"
    data-name="Path 9"
    d="M109.075,417.937a13.368,13.368,0,0,0-1.873-1.069c.013-.173.02-.352.02-.525a12.105,12.105,0,0,0-1.016-5.093,5.98,5.98,0,0,1-1.189,3.964,5.514,5.514,0,0,1-.478.564c-.046.047-.093.093-.139.133a12.239,12.239,0,0,0-2.869-.3,18.463,18.463,0,0,0-3.187.372c-1.321.252-2.636.6-3.951.9-.08.02-.153.033-.232.053a12.113,12.113,0,0,0-2.789-4.376,6.007,6.007,0,0,1,.325,4.124,5.105,5.105,0,0,1-.246.7,11.118,11.118,0,0,1-4.243-.292,9.842,9.842,0,0,1-1.673-.657c-1.9-.93-3.612-2.311-5.571-3.141a11.217,11.217,0,0,0-3.314-.843c-.956-5.478-.691-10.339,2.244-13.852a14.518,14.518,0,0,1,14.516-14.516l6.654,2.311,6.72,2.337C109.945,397.16,114.972,404.584,109.075,417.937Z"
    transform="translate(-25.586 -129.038)"
    fill="#2f2e41"
  />
  <g id="Group_1" data-name="Group 1" transform="translate(87.598 422.781)">
    <path
      id="Path_10"
      data-name="Path 10"
      d="M141.863,654.634l4.551,2.158,10.677-16.919-6.717-3.186Z"
      transform="translate(-135.26 -636.688)"
      fill="#ffb6b6"
    />
    <path
      id="Path_11"
      data-name="Path 11"
      d="M149.465,674.516,144.6,666.1l1.545-3.257-1.607-.65-4.987-2.006-1.221-.495-6.414,11.048,3.415,1.617,2.137-2.934.028,3.963,9.049,4.292a2.252,2.252,0,0,0,2.916-3.16Z"
      transform="translate(-131.919 -644.416)"
      fill="#2f2e41"
    />
  </g>
  <g id="Group_2" data-name="Group 2" transform="translate(147.646 356.819)">
    <path
      id="Path_12"
      data-name="Path 12"
      d="M236.117,556.822l3.63-3.492-12.041-15.977-5.358,5.154Z"
      transform="translate(-222.348 -537.353)"
      fill="#ffb6b6"
    />
    <path
      id="Path_13"
      data-name="Path 13"
      d="M257.027,557.221l-9.594,1.564-2.5-2.6-1.177,1.273-3.642,3.953-.9.967,8.061,9.911L250,569.669l-1.987-3.038,3.716,1.377,7.219-6.942a2.252,2.252,0,0,0-1.923-3.846Z"
      transform="translate(-228.016 -543.681)"
      fill="#2f2e41"
    />
  </g>
  <path
    id="Path_14"
    data-name="Path 14"
    d="M113.837,521.063l-17.929-3.984.12,5.455S77.315,537,94.58,550.944s46.482,15.273,46.482,15.273l-13.281,38.514,6.64,2.656,26.145-35.7a16.318,16.318,0,0,0-2.719-19.552,14.1,14.1,0,0,0-3.5-2.515c-7.968-3.984-29.217-11.953-29.217-11.953L114.5,527.039l-.664-5.976Z"
    transform="translate(-29.318 -173.722)"
    fill="#2f2e41"
  />
  <path
    id="Path_15"
    data-name="Path 15"
    d="M126.281,525.364l36.825-23.434a10.845,10.845,0,0,1,13.132,1.138l27.735,30.264-7.3,5.976-28.553-19.921s-16.6,18.593-21.249,18.593S126.281,525.364,126.281,525.364Z"
    transform="translate(-42.427 -168.063)"
    fill="#2f2e41"
  />
  <path
    id="Path_16"
    data-name="Path 16"
    d="M91.914,503.686s-11.31-6.41-5.987-11.838,5.987-22.588,5.987-22.588l-8.632-26,6.64-4.648,1.992-7.869,11.953-.664v5.877l11.973,13.256a16.3,16.3,0,0,1,3.19,16.59l-3.21,8.668s9.3,24.569,1.328,27.889S91.914,503.686,91.914,503.686Z"
    transform="translate(-27.98 -144.493)"
    fill="#efce45"
  />
  <path
    id="Path_17"
    data-name="Path 17"
    d="M168.513,373.366l-31.407-28.027a11.48,11.48,0,1,1,15.234-17.179l.054.048L183.8,356.235a11.48,11.48,0,0,1-15.288,17.131Z"
    transform="translate(-44.765 -109.28)"
    fill="#f2f2f2"
    style="isolation: isolate"
  />
  <circle
    id="Ellipse_1"
    data-name="Ellipse 1"
    cx="11.939"
    cy="11.939"
    r="11.939"
    transform="translate(60.789 259.509)"
    fill="#ffb6b6"
  />
  <path
    id="Path_18"
    data-name="Path 18"
    d="M112.975,398.065a11.963,11.963,0,0,0-.983-4.037,5.98,5.98,0,0,1-1.189,3.964.5.5,0,0,0-.053.073c-2.195,1.066-5.895.463-9.469,0V384.784h7.3c7.172-2.417,13.075,2.842,13.281,13.281-3.441.623-6.666.964-8.891,0Z"
    transform="translate(-34.027 -129.08)"
    fill="#2f2e41"
  />
  <path
    id="Path_19"
    data-name="Path 19"
    d="M103.09,418c-1.321.252-2.636.6-3.951.9-.08.02-.153.033-.232.053a12.113,12.113,0,0,0-2.789-4.376,6.007,6.007,0,0,1,.325,4.124,5.106,5.106,0,0,1-.246.7,11.118,11.118,0,0,1-4.243-.292,9.842,9.842,0,0,1-1.673-.657V390.078h13.945C98.814,399.3,98.044,408.592,103.09,418Z"
    transform="translate(-30.332 -131.054)"
    fill="#2f2e41"
  />
  <path
    id="Path_20"
    data-name="Path 20"
    d="M98.389,380.669a1.836,1.836,0,0,0-2.054-1.05,5.359,5.359,0,0,0-2.22,1.124,1.782,1.782,0,0,0-.484-2.537,3.335,3.335,0,0,0-2.825-.223c-.934.287-1.785.794-2.7,1.144a3.921,3.921,0,0,1-2.856.164,6.054,6.054,0,0,0,1.932,2.84,2.617,2.617,0,0,0-2.4,4.331,3.546,3.546,0,0,0,3.442.848A9.98,9.98,0,0,0,91.51,385.6a11.523,11.523,0,0,1,3.24-1.8l-3.912,2.461a45.545,45.545,0,0,0,5.8-2.916A4.912,4.912,0,0,0,98,382.287,1.791,1.791,0,0,0,98.389,380.669Z"
    transform="translate(-28.265 -126.922)"
    fill="#2f2e41"
  />
  <path
    id="Path_21"
    data-name="Path 21"
    d="M76.829,488.819c-.09-2.949,2.549-5.04,5.247-5.581,3.428-.687,6.928,1.081,9.833,2.687,5.191,2.87,11.213.024,16.76,3.509,8.187,5.144,9.879-2.561,9.363-11.659-.38-6.71,1.245-13.3,1.591-19.9.333-6.356,2.064-12.815,7.453-16.763a10.045,10.045,0,0,1,7.889-2.057c3,.621,5.4,2.777,8.288,3.716,5.38,1.747,11.038-.61,15.072-4.2,4.693-4.181,6.984-10.061,8.6-15.991,1.672-6.149,2.693-12.587,5.759-18.251,2.616-4.834,6.725-9.295,12.388-10.217,5.549-.9,10.866,1.817,15.655,4.253,4.929,2.507,10.025,5.224,15.672,5.458,12.1.5,21.45-9.8,26.695-19.585,5.986-11.174,9.457-24.733,20.092-32.633,4.571-3.4,10.371-5.766,16.147-4.815,5.837.962,10.1,5.2,13.977,9.333,3.971,4.238,7.913,8.414,13.292,10.855a31.221,31.221,0,0,0,16.928,2.534,29.969,29.969,0,0,0,8-2.237c1.174-.507.16-2.224-1.005-1.72a28.5,28.5,0,0,1-18,1.391c-5.974-1.472-10.734-4.813-14.952-9.188-3.862-4-7.493-8.564-12.544-11.138a19.583,19.583,0,0,0-16.243-.437A32.655,32.655,0,0,0,255.3,356.605c-4.081,5.261-6.795,11.428-9.523,17.455-4.93,10.894-11.251,23.759-23.865,27.145-11.944,3.206-20.78-7.363-31.921-9.04a16.687,16.687,0,0,0-14.539,4.984c-4.015,4.05-6.336,9.407-7.87,14.818-1.879,6.63-2.846,13.732-6.3,19.8-2.727,4.8-7.779,9.25-13.519,9.582-3.288.191-5.806-1.327-8.617-2.792a12.009,12.009,0,0,0-8.027-1.446c-5.334,1.041-9.478,5.754-11.515,10.559-5.024,11.852,1.894,27.082-7.941,37.216a11.185,11.185,0,0,1-6.707,3.529c-3.488.38-6.749-1.244-9.705-2.891-5.107-2.845-11.573-6.649-17.17-2.7a7.1,7.1,0,0,0-3.247,5.994c.039,1.279,2.031,1.284,1.992,0h0Z"
    transform="translate(-25.142 -115.785)"
    fill="#3f3d56"
  />
  <circle
    id="Ellipse_2"
    data-name="Ellipse 2"
    cx="5.976"
    cy="5.976"
    r="5.976"
    transform="translate(244.55 223.167)"
    fill="#efce45"
  />
  <circle
    id="Ellipse_3"
    data-name="Ellipse 3"
    cx="5.976"
    cy="5.976"
    r="5.976"
    transform="translate(188.772 279.609)"
    fill="#efce45"
  />
  <g id="Group_3" data-name="Group 3" transform="translate(160.671 67.448)">
    <path
      id="Path_22"
      data-name="Path 22"
      d="M241.963,145.315a18.622,18.622,0,0,1,21.279-9.48c4.566,1.331,8.4,4.388,12.595,6.622s9.407,3.622,13.631,1.435c7.259-3.759,6.817-14.982,13.131-20.175,4.2-3.456,10.37-3.295,15.564-1.674s9.945,4.481,15.173,5.989a31.5,31.5,0,0,0,28.53-6.085q.116-.1.229-.2a5.824,5.824,0,0,1,9.693,4.51l-.979,35.588H242.649l-.686-16.532Z"
      transform="translate(-241.963 -107.855)"
      fill="#f2f2f2"
    />
    <path
      id="Path_23"
      data-name="Path 23"
      d="M394.819,145.4a.5.5,0,0,0,0-.934,42.693,42.693,0,0,1-8.767-4.747.506.506,0,0,0-.773.583l1.435,3.967H362.155V145.6h24.559l-1.435,3.969a.506.506,0,0,0,.773.583A42.732,42.732,0,0,1,394.819,145.4Z"
      transform="translate(-282.344 -114.356)"
      fill="#3f3d56"
    />
    <path
      id="Path_24"
      data-name="Path 24"
      d="M314.64,138.31a.5.5,0,0,0-.566-.744,42.692,42.692,0,0,1-9.852,1.53.506.506,0,0,0-.262.932l3.544,2.288-19.545,14.869.8,1.057,19.545-14.869,1.26,4.028a.506.506,0,0,0,.968,0A42.733,42.733,0,0,1,314.64,138.31Z"
      transform="translate(-257.416 -113.66)"
      fill="#3f3d56"
    />
    <circle
      id="Ellipse_4"
      data-name="Ellipse 4"
      cx="11.383"
      cy="11.383"
      r="11.383"
      transform="translate(113.045)"
      fill="#efce45"
    />
    <circle
      id="Ellipse_5"
      data-name="Ellipse 5"
      cx="11.383"
      cy="11.383"
      r="11.383"
      transform="translate(57.266)"
      fill="#efce45"
      opacity="0.7"
    />
    <circle
      id="Ellipse_6"
      data-name="Ellipse 6"
      cx="11.383"
      cy="11.383"
      r="11.383"
      transform="translate(6.8 10.624)"
      fill="#efce45"
      opacity="0.25"
    />
  </g>
  <g id="Group_4" data-name="Group 4" transform="translate(109.284 142.879)">
    <path
      id="Path_25"
      data-name="Path 25"
      d="M382.7,216.435l-176.628-1.266a10.292,10.292,0,1,0-.148,20.584l176.628,1.266a10.292,10.292,0,0,0,.148-20.584Z"
      transform="translate(-175.034 -215.168)"
      fill="#f2f2f2"
    />
    <circle
      id="Ellipse_7"
      data-name="Ellipse 7"
      cx="4.648"
      cy="4.648"
      r="4.648"
      transform="translate(0 3.496)"
      fill="#f2f2f2"
    />
  </g>
  <g id="Group_5" data-name="Group 5" transform="translate(109.284 28.665)">
    <path
      id="Path_26"
      data-name="Path 26"
      d="M382.7,44.435,206.069,43.169a10.292,10.292,0,0,0-.148,20.584l176.628,1.266a10.292,10.292,0,0,0,.148-20.584Z"
      transform="translate(-175.034 -43.168)"
      fill="#f2f2f2"
    />
    <circle
      id="Ellipse_8"
      data-name="Ellipse 8"
      cx="4.648"
      cy="4.648"
      r="4.648"
      transform="translate(0 3.496)"
      fill="#f2f2f2"
    />
  </g>
  <g id="Group_6" data-name="Group 6" transform="translate(62.358 371.064)">
    <path
      id="Path_27"
      data-name="Path 27"
      d="M127.247,596.553H98.319a4.415,4.415,0,0,1-4.41-4.41V563.215a4.415,4.415,0,0,1,4.41-4.41h28.928a4.415,4.415,0,0,1,4.41,4.41v28.928A4.415,4.415,0,0,1,127.247,596.553Z"
      transform="translate(-93.909 -558.806)"
      fill="#fff"
    />
    <path
      id="Path_28"
      data-name="Path 28"
      d="M127.247,596.553H98.319a4.415,4.415,0,0,1-4.41-4.41V563.215a4.415,4.415,0,0,1,4.41-4.41h28.928a4.415,4.415,0,0,1,4.41,4.41v28.928A4.415,4.415,0,0,1,127.247,596.553ZM98.319,559.511a3.7,3.7,0,0,0-3.7,3.7v28.928a3.7,3.7,0,0,0,3.7,3.7h20.616a12.016,12.016,0,0,0,12.016-12.016V563.215a3.7,3.7,0,0,0-3.7-3.7Z"
      transform="translate(-93.909 -558.806)"
      fill="#e6e6e6"
    />
  </g>
  <path
    id="Path_29"
    data-name="Path 29"
    d="M463.22,543.457a1.507,1.507,0,0,0,1.092-2.612l-.1-.41.041-.1a4.047,4.047,0,0,1,7.465.028c1.221,2.94,2.775,5.886,3.158,8.995a11.971,11.971,0,0,1-.21,4.117,48,48,0,0,0,4.366-19.935,46.324,46.324,0,0,0-.287-5.168q-.238-2.11-.661-4.19a48.553,48.553,0,0,0-9.629-20.578,12.921,12.921,0,0,1-5.374-5.576,9.856,9.856,0,0,1-.9-2.693c.262.034.986-3.95.789-4.195.365-.553,1.017-.828,1.415-1.368,1.98-2.685,4.709-2.216,6.133,1.432,3.043,1.536,3.072,4.082,1.205,6.532-1.188,1.558-1.351,3.667-2.393,5.335.107.137.219.27.326.407a48.865,48.865,0,0,1,5.1,8.08,20.314,20.314,0,0,1,1.213-9.436c1.161-2.8,3.337-5.159,5.253-7.58a4.17,4.17,0,0,1,7.427,2.047q.006.054.011.107-.427.241-.836.511a2.044,2.044,0,0,0,.824,3.72l.042.006a20.335,20.335,0,0,1-.536,3.041c2.458,9.506-2.849,12.968-10.426,13.124-.167.086-.33.172-.5.253a49.876,49.876,0,0,1,2.685,12.635,47.311,47.311,0,0,1-.034,7.638l.013-.09a12.5,12.5,0,0,1,4.267-7.218c3.284-2.7,7.924-3.691,11.467-5.86a2.346,2.346,0,0,1,3.593,2.282l-.014.095a13.722,13.722,0,0,0-1.54.742q-.427.241-.836.511a2.044,2.044,0,0,0,.824,3.72l.042.006.086.013a20.354,20.354,0,0,1-3.744,5.863c-1.537,8.3-8.138,9.086-15.2,6.669h0a49.863,49.863,0,0,1-3.35,9.779H463.52c-.043-.133-.082-.27-.12-.4a13.6,13.6,0,0,0,3.311-.2c-.888-1.089-1.776-2.187-2.663-3.277a.744.744,0,0,1-.056-.064c-.45-.557-.9-1.111-1.355-1.668h0a19.915,19.915,0,0,1,.584-5.073h0Z"
    transform="translate(-155.279 -163.973)"
    fill="#f2f2f2"
  />
  <path
    id="Path_30"
    data-name="Path 30"
    d="M97.882,548.824a4.751,4.751,0,0,1-.7-7.2L87.989,519.8l5.41-4.027,10.73,26a4.744,4.744,0,0,1-6.248,7.052Z"
    transform="translate(-29.562 -173.285)"
    fill="#ffb6b6"
  />
  <path
    id="Path_31"
    data-name="Path 31"
    d="M85.836,445.933h0a7.7,7.7,0,0,0-8.2,6.242L72.281,480.55l16.6,33.866,8.632-3.984L86.89,478.558l5.773-23.09a7.7,7.7,0,0,0-6.826-9.535Z"
    transform="translate(-24.284 -149.81)"
    fill="#efce45"
  />
  <path
    id="Path_32"
    data-name="Path 32"
    d="M103.751,574.922a1,1,0,0,0-1,1v.664a1,1,0,0,0,1,1h23.241a1,1,0,0,0,1-1v-.664a1,1,0,0,0-1-1Z"
    transform="translate(-34.523 -193.156)"
    fill="#e6e6e6"
  />
  <path
    id="Path_33"
    data-name="Path 33"
    d="M103.751,585.922a1,1,0,0,0-1,1v.664a1,1,0,0,0,1,1h23.241a1,1,0,0,0,1-1v-.664a1,1,0,0,0-1-1Z"
    transform="translate(-34.523 -196.851)"
    fill="#e6e6e6"
  />
  <path
    id="Path_34"
    data-name="Path 34"
    d="M103.751,596.922a1,1,0,0,0-1,1v.664a1,1,0,0,0,1,1h23.241a1,1,0,0,0,1-1v-.664a1,1,0,0,0-1-1Z"
    transform="translate(-34.523 -200.547)"
    fill="#e6e6e6"
  />
</svg>
