<svg id="Group_19" data-name="Group 19" xmlns="http://www.w3.org/2000/svg" width="291.794" height="349.029" viewBox="0 0 291.794 349.029">
  <path id="Path_64" data-name="Path 64" d="M397.833,186.3H369.046v-9.479a28.8,28.8,0,0,1,28.787-28.787h0V186.3h0Z" transform="translate(-163.802 -65.707)" fill="#2f2e41"/>
  <path id="Path_65" data-name="Path 65" d="M390.138,182.147l4.95,22.262-29-4.816L377.9,178.538Z" transform="translate(-162.487 -79.245)" fill="#a0616a"/>
  <path id="Path_66" data-name="Path 66" d="M390.138,182.147l4.95,22.262-29-4.816L377.9,178.538Z" transform="translate(-162.487 -79.245)" opacity="0.1" style="isolation: isolate"/>
  <rect id="Rectangle_4" data-name="Rectangle 4" width="27.807" height="41.155" transform="translate(199.843 150.459)" fill="#a0616a"/>
  <path id="Path_67" data-name="Path 67" d="M415.2,405.038l-6.118,32.813a82.358,82.358,0,0,1-7.786,46.16l-7.786,23.914-11.679-1.668s7.23-17.8,7.23-25.583,1.668-37.818,1.668-37.818l-.834-34.269Z" transform="translate(-169.479 -179.777)" fill="#2f2e41"/>
  <path id="Path_68" data-name="Path 68" d="M376.341,584.692s13.348-5.005,14.46,2.225l-.556,3.337s5.005,15.016-2.225,16.128-13.9,2.781-14.46-.556-.547-7.5.839-10.425S376.341,584.692,376.341,584.692Z" transform="translate(-165.653 -258.768)" fill="#2f2e41"/>
  <g id="Group_16" data-name="Group 16" transform="translate(189.591 220.171)">
    <path id="Path_69" data-name="Path 69" d="M358.26,395.886l-3.249,33.22a82.358,82.358,0,0,0-5.359,46.5l.828,25.136,11.682,1.645s-2-19.105.17-26.584,8.915-36.79,8.915-36.79l10.332-32.685L358.26,395.886Z" transform="translate(-344.226 -395.886)" fill="#2f2e41"/>
    <path id="Path_70" data-name="Path 70" d="M360.594,583.744s-11.429-8.52-14.508-1.885l-.394,3.36s-8.984,13.032-2.349,16.111,12.582,6.538,14.044,3.487,2.612-7.054,2.094-10.247S360.594,583.744,360.594,583.744Z" transform="translate(-340.901 -477.309)" fill="#2f2e41"/>
  </g>
  <path id="Path_71" data-name="Path 71" d="M394.1,310.538c13.08,12.206,14.051,31.519,6.4,54.5,0,0-24.47,16.684-42.267-4.449l-8.9-42.823Z" transform="translate(-155.053 -137.833)" fill="#2f2e41"/>
  <path id="Path_72" data-name="Path 72" d="M381.062,202.651l13.9,2.225-1.112,35.037,15.572,31.144L389.4,281.067s-15.572-29.476-18.353-47.829-1.112-31.7-1.112-31.7Z" transform="translate(-163.978 -89.453)" fill="#6c63ff"/>
  <path id="Path_73" data-name="Path 73" d="M358.463,204.651l-13.9,2.225,1.112,35.037-3.337,32.257,7.786,8.9s15.572-29.476,18.353-47.829,1.112-31.7,1.112-31.7Z" transform="translate(-151.946 -90.341)" fill="#6c63ff"/>
  <path id="Path_74" data-name="Path 74" d="M400.747,206.209l3.059-.834s10.845-1.39,12.513,3.059,1.112,30.588,1.112,30.588,2.87,32.081-8.3,32.447-8.943-26.329-8.943-26.329Z" transform="translate(-177.546 -91.065)" fill="#6c63ff"/>
  <circle id="Ellipse_12" data-name="Ellipse 12" cx="14.394" cy="14.394" r="14.394" transform="translate(208.404 80.224)" fill="#a0616a"/>
  <path id="Path_75" data-name="Path 75" d="M354.755,208.209l-3.059-.834s-10.845-1.39-12.513,3.059-1.112,30.588-1.112,30.588-2.87,32.081,8.3,32.447,8.943-26.329,8.943-26.329Z" transform="translate(-149.907 -91.952)" fill="#6c63ff"/>
  <path id="Path_76" data-name="Path 76" d="M368.509,205.659c-3.088-.783-6.589,2.515-7.82,7.368a12.527,12.527,0,0,0-.141,5.915l-1.327,5.517-.1-.005-10.466,24.665a19.961,19.961,0,0,0,.927,17.72c1.846,3.213,4.27,5.373,7.116,3.168,4.722-3.659,7.807-24.609,9.215-36.644l3.256-12.233a12.529,12.529,0,0,0,2.7-5.268c1.232-4.852-.273-9.42-3.361-10.2Z" transform="translate(-154.026 -91.231)" fill="#a0616a"/>
  <path id="Path_77" data-name="Path 77" d="M350.638,165.761c.732-2.226,2.177-4.175,2.824-6.428.859-2.991,2.687,3.644,2.865.538.339-5.9,9.35-21.093,14.495-24.01s8.1-2.038,13.34.7a16.669,16.669,0,0,1,5.712,1.726,14.182,14.182,0,0,1,7.25,7.379c.976,2.624.868,5.506,1.195,8.287.909,7.747,5.252,15.115,4.32,22.859-.291,2.416-1.209,4.915-3.185,6.336s-5.167,1.267-6.468-.791c-.444-.7-.631-1.535-1.012-2.273a2.275,2.275,0,0,0-1.9-1.4c-1.248.035-1.883,1.709-1.391,2.856a5.833,5.833,0,0,0,2.734,2.456,7.946,7.946,0,0,1-11.12-8.413c.586-3.952,6.344-3.134,7.022-7.071.494-2.866,2.228-7.662,1.755-10.532s-2.74.605-.351-1.053c-2.629,1.267-8.252-7.4-11-8.373a11.239,11.239,0,0,1-6.337-5.71c-2.919,4.231-5.487,3.082-6.532,8.115s-.079,16.467,4.226,19.277a10.971,10.971,0,0,0-3.9,4.778,11.842,11.842,0,0,1-1.515,3.185c-1.452,1.727-4.132,1.833-6.268,1.106a10.755,10.755,0,0,1-6.755-13.543Z" transform="translate(-155.397 -59.498)" fill="#2f2e41"/>
  <path id="Path_78" data-name="Path 78" d="M0,625.608a.66.66,0,0,0,.662.662h290.47a.662.662,0,1,0,0-1.324H.662A.66.66,0,0,0,0,625.608Z" transform="translate(0 -277.384)" fill="#3f3d56"/>
  <g id="Group_18" data-name="Group 18" transform="translate(7.465)">
    <path id="Path_79" data-name="Path 79" d="M230.007,1H115.625A23.486,23.486,0,0,0,92.139,24.486v300.56a23.486,23.486,0,0,0,23.486,23.486H230.007a23.486,23.486,0,0,0,23.486-23.486V24.486A23.486,23.486,0,0,0,230.007,1Z" transform="translate(-48.361 -0.444)" fill="#fff"/>
    <path id="Path_80" data-name="Path 80" d="M229.563,348.644H115.181A24.069,24.069,0,0,1,91.139,324.6V24.042A24.07,24.07,0,0,1,115.181,0H229.563a24.07,24.07,0,0,1,24.042,24.042V324.6a24.069,24.069,0,0,1-24.042,24.042ZM115.181,1.112a22.956,22.956,0,0,0-22.93,22.93V324.6a22.956,22.956,0,0,0,22.93,22.93H229.563a22.956,22.956,0,0,0,22.93-22.93V24.042a22.956,22.956,0,0,0-22.93-22.93Z" transform="translate(-47.918)" fill="#3f3d56"/>
    <path id="Path_81" data-name="Path 81" d="M73.691,94.566a1.823,1.823,0,0,0-1.821,1.821v14.566a1.821,1.821,0,1,0,3.642,0V96.387A1.823,1.823,0,0,0,73.691,94.566Z" transform="translate(-39.365 -41.974)" fill="#3f3d56"/>
    <path id="Path_82" data-name="Path 82" d="M315.421,81.816H269.445a3.537,3.537,0,1,1,0-7.073h45.975a3.537,3.537,0,1,1,0,7.073Z" transform="translate(-125.49 -33.175)" fill="#e6e6e6"/>
    <path id="Path_83" data-name="Path 83" d="M240.085,134.207h-44.69a2.043,2.043,0,1,1,0-4.086h44.69a2.043,2.043,0,0,1,0,4.086Z" transform="translate(-93.285 -57.754)" fill="#6c63ff"/>
    <ellipse id="Ellipse_13" data-name="Ellipse 13" cx="36.093" cy="35.333" rx="36.093" ry="35.333" transform="translate(0 15.872)" fill="#6c63ff"/>
    <path id="Path_84" data-name="Path 84" d="M79.035,59.367,64.62,85.616Q60.026,77.5,55.441,69.377c-1.06-1.867-3.944-.188-2.881,1.684,3.559,6.268,7.081,12.556,10.64,18.824a1.683,1.683,0,0,0,2.881,0L81.916,61.051C82.951,59.167,80.07,57.482,79.035,59.367Z" transform="translate(-30.692 -25.984)" fill="#fff"/>
    <rect id="Rectangle_5" data-name="Rectangle 5" width="25.86" height="3.315" rx="0.31" transform="translate(57.947 8.152)" fill="#e6e6e6"/>
    <circle id="Ellipse_14" data-name="Ellipse 14" cx="2.652" cy="2.652" r="2.652" transform="translate(166.924 6.163)" fill="#e6e6e6"/>
    <circle id="Ellipse_15" data-name="Ellipse 15" cx="2.652" cy="2.652" r="2.652" transform="translate(174.218 6.163)" fill="#e6e6e6"/>
    <circle id="Ellipse_16" data-name="Ellipse 16" cx="2.652" cy="2.652" r="2.652" transform="translate(181.512 6.163)" fill="#e6e6e6"/>
    <path id="Path_85" data-name="Path 85" d="M133.868,156.608a.66.66,0,0,0,.662.662H248.145a.662.662,0,1,0,0-1.324H134.53A.66.66,0,0,0,133.868,156.608Z" transform="translate(-66.883 -69.217)" fill="#3f3d56"/>
    <g id="Group_17" data-name="Group 17" transform="translate(76.499 128.213)">
      <path id="Path_86" data-name="Path 86" d="M263.711,247.405H195.529a2.043,2.043,0,1,1,0-4.086h68.183a2.043,2.043,0,0,1,0,4.086Z" transform="translate(-169.844 -236.211)" fill="#6c63ff"/>
      <path id="Path_87" data-name="Path 87" d="M263.711,300.405H195.529a2.043,2.043,0,1,1,0-4.086h68.183a2.043,2.043,0,0,1,0,4.086Z" transform="translate(-169.844 -259.735)" fill="#6c63ff"/>
      <path id="Path_88" data-name="Path 88" d="M263.711,353.405H195.529a2.043,2.043,0,1,1,0-4.086h68.183a2.043,2.043,0,0,1,0,4.086Z" transform="translate(-169.844 -283.259)" fill="#6c63ff"/>
      <circle id="Ellipse_17" data-name="Ellipse 17" cx="5.005" cy="5.005" r="5.005" transform="translate(0 3.893)" fill="#6c63ff"/>
      <path id="Path_89" data-name="Path 89" d="M158.975,247.779v-1.112a7.508,7.508,0,1,0,0-15.016v-1.112a8.62,8.62,0,0,1,0,17.241Z" transform="translate(-154.526 -230.538)" fill="#3f3d56"/>
      <circle id="Ellipse_18" data-name="Ellipse 18" cx="5.005" cy="5.005" r="5.005" transform="translate(0 33.369)" fill="#6c63ff"/>
      <path id="Path_90" data-name="Path 90" d="M158.975,300.779v-1.112a7.508,7.508,0,1,0,0-15.016v-1.112a8.62,8.62,0,1,1,0,17.241Z" transform="translate(-154.526 -254.063)" fill="#3f3d56"/>
      <circle id="Ellipse_19" data-name="Ellipse 19" cx="5.005" cy="5.005" r="5.005" transform="translate(0 62.845)" fill="#6c63ff"/>
      <path id="Path_91" data-name="Path 91" d="M158.975,353.779v-1.112a7.508,7.508,0,1,0,0-15.016v-1.112a8.62,8.62,0,1,1,0,17.241Z" transform="translate(-154.526 -277.587)" fill="#3f3d56"/>
    </g>
  </g>
  <path id="Path_92" data-name="Path 92" d="M380.987,203.659c3.088-.783,6.589,2.515,7.82,7.368a12.527,12.527,0,0,1,.141,5.915l1.327,5.517.1-.005,10.466,24.665a19.961,19.961,0,0,1-.927,17.72c-1.846,3.213-4.27,5.373-7.116,3.168-4.722-3.659-7.807-24.609-9.215-36.644l-3.256-12.233a12.528,12.528,0,0,1-2.7-5.268c-1.232-4.852.273-9.42,3.361-10.2Z" transform="translate(-167.419 -90.343)" fill="#a0616a"/>
  <path id="Path_93" data-name="Path 93" d="M396.044,228.053l-11.709,8.323,5.854,36.869,7.343,9.5,8.553-2.958,2.5-17.429L405.643,245.5Z" transform="translate(-170.588 -101.222)" fill="#6c63ff"/>
</svg>

